<svg width="127" height="33" viewBox="0 0 127 33" fill="none" xmlns="http://www.w3.org/2000/svg">
<path d="M126.918 2.78526e-06C112.897 19.957 89.7011 33.0001 63.4588 33.0001C37.2165 33.0001 14.0206 19.957 0 2.78526e-06C9.45883 9.05233e-05 124.459 7.62939e-06 126.918 2.78526e-06Z" fill="black" fill-opacity="0.2"/>
<path opacity="0.6" fill-rule="evenodd" clip-rule="evenodd" d="M70.319 11.438L68.219 11.427L66.208 8.319C66.1506 8.22382 66.0701 8.14466 65.974 8.0889C65.8778 8.03313 65.7691 8.00256 65.658 8H60.241C60.1329 8.00291 60.0271 8.03245 59.9331 8.086C59.8391 8.13955 59.7597 8.21546 59.702 8.30701L57.625 11.427L55.68 11.438C54.9573 11.4543 54.2703 11.7553 53.7684 12.2755C53.2665 12.7958 52.9904 13.4932 53 14.216V23.2C52.9897 23.9253 53.2652 24.6255 53.7668 25.1494C54.2684 25.6733 54.956 25.9788 55.681 26H70.319C71.0441 25.9788 71.7316 25.6733 72.2333 25.1494C72.7349 24.6255 73.0103 23.9253 73 23.2V14.217C73.01 13.4939 72.7338 12.796 72.2317 12.2755C71.7295 11.755 71.0421 11.454 70.319 11.438ZM71.681 23.199C71.6865 23.5687 71.5471 23.9259 71.2925 24.1941C71.038 24.4623 70.6885 24.6202 70.319 24.634H55.681C55.3115 24.6202 54.9621 24.4623 54.7076 24.1941C54.453 23.9259 54.3136 23.5687 54.319 23.199V14.216C54.3158 13.8491 54.4566 13.4956 54.7113 13.2315C54.9661 12.9675 55.3143 12.8139 55.681 12.804H57.981C58.0891 12.8012 58.1947 12.7717 58.2886 12.7181C58.3825 12.6645 58.4617 12.5886 58.519 12.497L60.596 9.37701H65.311L67.311 12.477C67.3693 12.5678 67.4487 12.6433 67.5423 12.6969C67.636 12.7505 67.7412 12.7807 67.849 12.785L70.311 12.808C70.6781 12.8164 71.0271 12.9693 71.2821 13.2335C71.5371 13.4977 71.6776 13.8518 71.673 14.219V23.2H71.684L71.681 23.199ZM63.055 13.078C62.0906 13.0437 61.138 13.2984 60.3193 13.8094C59.5007 14.3203 58.8534 15.0642 58.4605 15.9457C58.0676 16.8271 57.947 17.8058 58.1143 18.7562C58.2816 19.7066 58.7291 20.5854 59.3993 21.2797C60.0695 21.974 60.9319 22.4523 61.8758 22.653C62.8197 22.8538 63.8021 22.7679 64.6968 22.4064C65.5916 22.0449 66.3579 21.4243 66.8975 20.6242C67.4371 19.8241 67.7252 18.881 67.725 17.916C67.7459 16.6555 67.2659 15.4383 66.3904 14.5313C65.5149 13.6243 64.3154 13.1017 63.055 13.078ZM63.055 21.389C62.3629 21.4137 61.6792 21.2311 61.0916 20.8645C60.504 20.4979 60.0394 19.9641 59.7573 19.3315C59.4753 18.699 59.3886 17.9966 59.5085 17.3145C59.6284 16.6324 59.9494 16.0017 60.4303 15.5033C60.9112 15.0049 61.53 14.6616 62.2074 14.5174C62.8848 14.3732 63.5898 14.4347 64.232 14.6939C64.8742 14.9532 65.4243 15.3985 65.8116 15.9726C66.199 16.5467 66.406 17.2234 66.406 17.916C66.42 18.8203 66.0753 19.6933 65.4473 20.3441C64.8193 20.9949 63.9592 21.3706 63.055 21.389ZM69.308 14.136C69.1196 14.1292 68.9334 14.1789 68.7734 14.2787C68.6134 14.3785 68.4869 14.5238 68.4101 14.696C68.3333 14.8682 68.3097 15.0595 68.3423 15.2452C68.375 15.4309 68.4624 15.6026 68.5933 15.7383C68.7243 15.874 68.8928 15.9675 69.0772 16.0067C69.2617 16.0459 69.4536 16.0291 69.6285 15.9585C69.8033 15.8878 69.953 15.7666 70.0584 15.6102C70.1638 15.4538 70.2201 15.2696 70.22 15.081C70.2223 14.959 70.2005 14.8379 70.1559 14.7243C70.1112 14.6108 70.0446 14.5072 69.9599 14.4194C69.8752 14.3317 69.7741 14.2615 69.6622 14.2128C69.5503 14.1642 69.43 14.1381 69.308 14.136Z" fill="white"/>
</svg>
