<svg width="31" height="32" viewBox="0 0 31 32" fill="none" xmlns="http://www.w3.org/2000/svg">
<path d="M2.27132 2.01392L6.11088 0.916901C6.87844 0.697597 7.70456 0.911668 8.26903 1.47613C8.47204 1.67915 8.63332 1.91998 8.74375 2.185L11.031 7.67429C11.2455 8.34164 10.9915 9.07143 10.4071 9.46103L7.74325 11.2369C7.31332 11.5235 6.9912 11.9453 6.8278 12.4355C6.58669 13.1588 6.7158 13.9544 7.17328 14.5644L9.25887 17.3452C9.5002 17.6669 9.76406 17.9712 10.0485 18.2556L12.7444 20.9515C13.0288 21.2359 13.3331 21.4998 13.6548 21.7411L16.1412 23.6059C16.9287 24.1966 17.9305 24.4238 18.8958 24.2307C19.7956 24.0508 20.5871 23.5207 21.0961 22.7572L22.1813 21.1294C22.2868 20.9711 22.4319 20.8431 22.6021 20.758C22.8741 20.622 23.1904 20.6054 23.4751 20.7121L29.6318 23.0209C30.154 23.2168 30.5 23.716 30.5 24.2737C30.5 24.3831 30.4866 24.4921 30.4601 24.5982L29.0558 30.2151C29.0375 30.2885 29.0112 30.3596 28.9774 30.4272C28.8019 30.7783 28.4431 31 28.0506 31H26.3543C26.146 31 25.9381 30.9828 25.7327 30.9486L21.0861 30.1741C20.4612 30.07 19.852 29.8871 19.273 29.6298L16.444 28.3724C15.9821 28.1671 15.5421 27.9156 15.1308 27.6218L12.3123 25.6086L7.85754 21.6488L5.27091 18.6311C5.0267 18.3462 4.80422 18.0434 4.60534 17.7252L2.84905 14.9151C2.58406 14.4911 2.36213 14.0417 2.18657 13.5735L1.27396 11.1399C1.0834 10.6317 0.948561 10.1044 0.871809 9.56713L0.575379 7.49212C0.525189 7.14079 0.5 6.78635 0.5 6.43146V4.36221C0.5 4.16253 0.524489 3.9636 0.57292 3.76987C0.784609 2.92312 1.43209 2.2537 2.27132 2.01392Z" stroke="#D34C4C"/>
</svg>
