<svg width="32" height="32" viewBox="0 0 32 32" fill="none" xmlns="http://www.w3.org/2000/svg">
<path d="M1.27426 2.02549L1.27491 2.02534L7.77446 0.525443L1.27426 2.02549ZM1.27426 2.02549C0.821238 2.12939 0.5 2.53264 0.5 3.00061C0.5 18.7551 13.2693 31.5 28.9994 31.5C29.4702 31.5 29.8702 31.1758 29.9747 30.7251L1.27426 2.02549ZM11.6357 9.26766L11.6331 9.26979L7.84565 12.3697L7.5442 12.6165L7.70971 12.9691C10.0086 17.8671 14.0241 21.9403 19.0249 24.2842L19.3774 24.4494L19.624 24.1481L22.7238 20.3609C22.7239 20.3608 22.7239 20.3608 22.724 20.3607C23.0087 20.0133 23.4835 19.8981 23.8901 20.0723L30.8858 23.0705C30.8864 23.0707 30.8869 23.071 30.8875 23.0712C31.3386 23.2704 31.5821 23.7574 31.4747 24.2252L11.6357 9.26766ZM11.6357 9.26766C11.9785 8.99097 12.0965 8.51231 11.9214 8.10372L8.92239 1.10595C8.92225 1.10564 8.92211 1.10532 8.92197 1.105M11.6357 9.26766L8.92197 1.105M8.92197 1.105C8.72978 0.663376 8.24475 0.417396 7.77478 0.525371L8.92197 1.105ZM29.9748 30.7248L31.4746 24.2255L29.9748 30.7248Z" stroke="white"/>
</svg>
