<svg width="32" height="32" viewBox="0 0 32 32" fill="none" xmlns="http://www.w3.org/2000/svg">
<path d="M7.46523 0.614594L3.16633 1.53579C1.85126 1.81759 0.829264 2.85368 0.565503 4.17248C0.521941 4.3903 0.5 4.61188 0.5 4.834V6.50342C0.5 6.83391 0.527305 7.16383 0.581636 7.48982L0.922606 9.53564C0.974123 9.84474 1.04978 10.1493 1.14887 10.4466L1.86516 12.5955C1.95494 12.8648 2.06372 13.1274 2.19069 13.3814L3.5 16L4.76134 18.1022C4.92021 18.367 5.09928 18.6191 5.29697 18.8564L7.5 21.5L10.5 24.5L14.4221 27.5506C14.806 27.8491 15.2246 28.0998 15.669 28.2973L19.5 30L23 31L26.0779 31.4397C26.3589 31.4798 26.6425 31.5 26.9264 31.5H28.636C28.8754 31.5 29.1115 31.4443 29.3255 31.3372C29.7511 31.1245 30.0546 30.7271 30.1479 30.2606L31 26L31.3676 24.5295C31.453 24.1878 31.4134 23.8268 31.2559 23.5118C31.0913 23.1826 30.8095 22.9267 30.4659 22.7946L24.5 20.5L24.1793 20.3396C23.7517 20.1258 23.2483 20.1258 22.8207 20.3396C22.6098 20.4451 22.4263 20.5982 22.2849 20.7869L20.8416 22.7111C20.0647 23.747 18.6582 24.0791 17.5 23.5L16 22.5L13.5 20.5L11 18L9 15.5L7.95125 13.9269C7.441 13.1615 7.7 12.1231 8.50992 11.687C8.5865 11.6457 8.65951 11.5982 8.72817 11.5448L9.75 10.75L11.444 9.43245C11.7948 9.15959 12 8.74005 12 8.29561C12 8.10057 11.9604 7.90756 11.8836 7.72829L9.22498 1.52494C9.07971 1.18599 8.81901 0.909504 8.48917 0.744587C8.17252 0.586258 7.8114 0.540414 7.46523 0.614594Z" stroke="white"/>
</svg>
