<svg width="155" height="155" viewBox="0 0 155 155" fill="none" xmlns="http://www.w3.org/2000/svg">
<circle cx="77.5" cy="77.5" r="77.5" fill="#EEEEEE"/>
<path fill-rule="evenodd" clip-rule="evenodd" d="M77.1071 76.3468C79.1173 76.3758 81.1125 75.9969 82.972 75.2328C84.8316 74.4688 86.5169 73.3357 87.9261 71.9019C89.3461 70.4992 90.4735 68.8286 91.243 66.987C92.0125 65.1454 92.4087 63.1693 92.4087 61.1733C92.4087 59.1774 92.0125 57.2014 91.243 55.3597C90.4735 53.5181 89.3461 51.8475 87.9261 50.4449C85.0457 47.5971 81.1586 46 77.1081 46C73.0576 46 69.1705 47.5971 66.2901 50.4449C64.87 51.8474 63.7425 53.518 62.9729 55.3596C62.2034 57.2013 61.8071 59.1774 61.8071 61.1733C61.8071 63.1693 62.2034 65.1454 62.9729 66.9871C63.7425 68.8287 64.87 70.4993 66.2901 71.9019C67.699 73.3354 69.3841 74.4685 71.2432 75.2325C73.1024 75.9964 75.0973 76.3755 77.1071 76.3468ZM103.88 94.4468C103.78 93.1116 103.608 91.7827 103.365 90.4659C103.124 89.1123 102.795 87.776 102.378 86.4659C101.956 85.1672 101.4 83.9161 100.718 82.7328C100.047 81.5393 99.2043 80.4501 98.2181 79.4998C97.1756 78.5286 95.9552 77.768 94.6241 77.2599C93.1597 76.7009 91.6035 76.4217 90.0361 76.4369C89.1224 76.5338 88.2574 76.8976 87.5491 77.4828C86.8041 77.9648 85.9321 78.5229 84.9591 79.1389C83.906 79.7616 82.7802 80.2523 81.6071 80.5999C78.944 81.4759 76.0702 81.4759 73.4071 80.5999C72.2349 80.2511 71.1101 79.7594 70.0581 79.1358C69.0941 78.5248 68.2211 77.9668 67.4651 77.4778C66.7572 76.8925 65.8925 76.5287 64.9791 76.4319C63.4119 76.4166 61.8558 76.6965 60.3921 77.2568C59.0604 77.764 57.8396 78.5243 56.7971 79.4958C55.8114 80.4465 54.9692 81.5356 54.2971 82.7289C53.6167 83.9126 53.0607 85.1636 52.6381 86.4619C52.2214 87.7719 51.892 89.1082 51.6521 90.4619C51.4084 91.7789 51.2365 93.1082 51.1371 94.4438C51.0531 95.6438 51.0101 96.8999 51.0101 98.1649C50.9455 99.6302 51.1913 101.093 51.7312 102.457C52.2711 103.82 53.093 105.055 54.1431 106.079C56.3468 108.074 59.2463 109.122 62.2161 108.999H92.8041C95.7739 109.122 98.6731 108.073 100.877 106.079C101.927 105.055 102.748 103.82 103.288 102.456C103.827 101.092 104.072 99.63 104.007 98.1649C104.007 96.8999 103.963 95.6438 103.879 94.4438L103.88 94.4468Z" fill="#D7D7D7"/>
</svg>
